name rise36.2859peak64.2979fall75.1499.mot
datacolumns 19
datarows 21
range 15.97160300000000 16.00493700000000
endheader
time	ground_force1_vx	ground_force1_vy	ground_force1_vz	ground_force1_px	ground_force1_py	ground_force1_pz	ground_force2_vx	ground_force2_vy	ground_force2_vz	ground_force2_px	ground_force2_py	ground_force2_pz	ground_torque1_x	ground_torque1_y	ground_torque1_z	ground_torque2_x	ground_torque2_y	ground_torque2_z	
15.97160300000000	50.91025500000000	748.56903899999998	65.57538099999999	0.42806800000000	0.00000000000000	0.12045100000000	0.00000000000000	0.00000000000000	0.00000000000000	0.00000000000000	0.00000000000000	0.00000000000000	0.00000000000000	42.40544600000000	0.00000000000000	0.00000000000000	0.00000000000000	0.00000000000000	
15.97328500000000	50.07501100000000	750.62032499999998	65.74238600000000	0.42600800000000	0.00000000000000	0.12055900000000	0.00000000000000	0.00000000000000	0.00000000000000	0.00000000000000	0.00000000000000	0.00000000000000	0.00000000000000	42.49597700000000	0.00000000000000	0.00000000000000	0.00000000000000	0.00000000000000	
15.97494000000000	49.24630200000000	752.58230700000001	65.90465399999999	0.42395100000000	0.00000000000000	0.12066700000000	0.00000000000000	0.00000000000000	0.00000000000000	0.00000000000000	0.00000000000000	0.00000000000000	0.00000000000000	42.58140700000000	0.00000000000000	0.00000000000000	0.00000000000000	0.00000000000000	
15.97660300000000	48.42490200000000	754.45348700000000	66.06199300000000	0.42190000000000	0.00000000000000	0.12077500000000	0.00000000000000	0.00000000000000	0.00000000000000	0.00000000000000	0.00000000000000	0.00000000000000	0.00000000000000	42.66173000000000	0.00000000000000	0.00000000000000	0.00000000000000	0.00000000000000	
15.97828500000000	47.61150000000000	756.23235199999999	66.21414500000000	0.41985800000000	0.00000000000000	0.12088200000000	0.00000000000000	0.00000000000000	0.00000000000000	0.00000000000000	0.00000000000000	0.00000000000000	0.00000000000000	42.73689500000000	0.00000000000000	0.00000000000000	0.00000000000000	0.00000000000000	
15.97994000000000	46.80669600000000	757.91738799999996	66.36080200000001	0.41782700000000	0.00000000000000	0.12098900000000	0.00000000000000	0.00000000000000	0.00000000000000	0.00000000000000	0.00000000000000	0.00000000000000	0.00000000000000	42.80682000000000	0.00000000000000	0.00000000000000	0.00000000000000	0.00000000000000	
15.98160700000000	46.01100600000000	759.50710300000003	66.50160099999999	0.41581000000000	0.00000000000000	0.12109500000000	0.00000000000000	0.00000000000000	0.00000000000000	0.00000000000000	0.00000000000000	0.00000000000000	0.00000000000000	42.87138600000000	0.00000000000000	0.00000000000000	0.00000000000000	0.00000000000000	
15.98328000000000	45.22486700000000	761.00003500000003	66.63613400000000	0.41380800000000	0.00000000000000	0.12120100000000	0.00000000000000	0.00000000000000	0.00000000000000	0.00000000000000	0.00000000000000	0.00000000000000	0.00000000000000	42.93044700000000	0.00000000000000	0.00000000000000	0.00000000000000	0.00000000000000	
15.98493500000000	44.44863400000000	762.39477399999998	66.76394900000000	0.41182400000000	0.00000000000000	0.12130500000000	0.00000000000000	0.00000000000000	0.00000000000000	0.00000000000000	0.00000000000000	0.00000000000000	0.00000000000000	42.98382800000000	0.00000000000000	0.00000000000000	0.00000000000000	0.00000000000000	
15.98660900000000	43.68258700000000	763.68997800000000	66.88456100000001	0.40986000000000	0.00000000000000	0.12140800000000	0.00000000000000	0.00000000000000	0.00000000000000	0.00000000000000	0.00000000000000	0.00000000000000	0.00000000000000	43.03133400000000	0.00000000000000	0.00000000000000	0.00000000000000	0.00000000000000	
15.98828100000000	42.92693300000000	764.88438399999995	66.99745200000000	0.40791700000000	0.00000000000000	0.12150900000000	0.00000000000000	0.00000000000000	0.00000000000000	0.00000000000000	0.00000000000000	0.00000000000000	0.00000000000000	43.07274900000000	0.00000000000000	0.00000000000000	0.00000000000000	0.00000000000000	
15.98993800000000	42.18181100000000	765.97682699999996	67.10207900000000	0.40599800000000	0.00000000000000	0.12160800000000	0.00000000000000	0.00000000000000	0.00000000000000	0.00000000000000	0.00000000000000	0.00000000000000	0.00000000000000	43.10784100000000	0.00000000000000	0.00000000000000	0.00000000000000	0.00000000000000	
15.99160600000000	41.44729300000000	766.96625200000005	67.19788100000000	0.40410300000000	0.00000000000000	0.12170600000000	0.00000000000000	0.00000000000000	0.00000000000000	0.00000000000000	0.00000000000000	0.00000000000000	0.00000000000000	43.13636800000000	0.00000000000000	0.00000000000000	0.00000000000000	0.00000000000000	
15.99329100000000	40.72338800000000	767.85173099999997	67.28428200000000	0.40223600000000	0.00000000000000	0.12180100000000	0.00000000000000	0.00000000000000	0.00000000000000	0.00000000000000	0.00000000000000	0.00000000000000	0.00000000000000	43.15807700000000	0.00000000000000	0.00000000000000	0.00000000000000	0.00000000000000	
15.99494300000000	40.01004900000000	768.63247300000000	67.36069800000000	0.40039600000000	0.00000000000000	0.12189400000000	0.00000000000000	0.00000000000000	0.00000000000000	0.00000000000000	0.00000000000000	0.00000000000000	0.00000000000000	43.17271200000000	0.00000000000000	0.00000000000000	0.00000000000000	0.00000000000000	
15.99660700000000	39.30717500000000	769.30783499999995	67.42654400000001	0.39858600000000	0.00000000000000	0.12198400000000	0.00000000000000	0.00000000000000	0.00000000000000	0.00000000000000	0.00000000000000	0.00000000000000	0.00000000000000	43.18001500000000	0.00000000000000	0.00000000000000	0.00000000000000	0.00000000000000	
15.99828800000000	38.61461300000000	769.87733800000001	67.48123800000000	0.39680600000000	0.00000000000000	0.12207100000000	0.00000000000000	0.00000000000000	0.00000000000000	0.00000000000000	0.00000000000000	0.00000000000000	0.00000000000000	43.17973100000000	0.00000000000000	0.00000000000000	0.00000000000000	0.00000000000000	
15.99994300000000	37.93216900000000	770.34067400000004	67.52420600000001	0.39505800000000	0.00000000000000	0.12215500000000	0.00000000000000	0.00000000000000	0.00000000000000	0.00000000000000	0.00000000000000	0.00000000000000	0.00000000000000	43.17161000000000	0.00000000000000	0.00000000000000	0.00000000000000	0.00000000000000	
16.00160500000000	37.25960400000000	770.69771400000002	67.55489200000000	0.39334300000000	0.00000000000000	0.12223600000000	0.00000000000000	0.00000000000000	0.00000000000000	0.00000000000000	0.00000000000000	0.00000000000000	0.00000000000000	43.15541000000000	0.00000000000000	0.00000000000000	0.00000000000000	0.00000000000000	
16.00326800000000	36.59664200000000	770.94852100000003	67.57275600000000	0.39166100000000	0.00000000000000	0.12231400000000	0.00000000000000	0.00000000000000	0.00000000000000	0.00000000000000	0.00000000000000	0.00000000000000	0.00000000000000	43.13090000000000	0.00000000000000	0.00000000000000	0.00000000000000	0.00000000000000	
16.00493700000000	35.94297800000000	771.09335299999998	67.57728500000000	0.39001300000000	0.00000000000000	0.12238800000000	0.00000000000000	0.00000000000000	0.00000000000000	0.00000000000000	0.00000000000000	0.00000000000000	0.00000000000000	43.09786600000000	0.00000000000000	0.00000000000000	0.00000000000000	0.00000000000000	
